<svg id="visual" viewBox="0 0 1440 320" xmlns="http://www.w3.org/2000/svg" xmlns:xlink="http://www.w3.org/1999/xlink" version="1.1"><rect x="0" y="0" width="1440" height="320" fill="#C9D8B6"></rect><path d="M0 240L40 228.2C80 216.3 160 192.7 240 176.8C320 161 400 153 480 161.7C560 170.3 640 195.7 720 204C800 212.3 880 203.7 960 191.2C1040 178.7 1120 162.3 1200 168C1280 173.7 1360 201.3 1400 215.2L1440 229L1440 321L1400 321C1360 321 1280 321 1200 321C1120 321 1040 321 960 321C880 321 800 321 720 321C640 321 560 321 480 321C400 321 320 321 240 321C160 321 80 321 40 321L0 321Z" fill="#57837B" stroke-linecap="round" stroke-linejoin="miter"></path></svg>