<svg id="visual" viewBox="0 0 1440 320" xmlns="http://www.w3.org/2000/svg" xmlns:xlink="http://www.w3.org/1999/xlink" version="1.1"><rect x="0" y="0" width="1440" height="320" fill="#F1ECC3"></rect><path d="M0 129L40 147.3C80 165.7 160 202.3 240 208.7C320 215 400 191 480 186.3C560 181.7 640 196.3 720 190C800 183.7 880 156.3 960 163.7C1040 171 1120 213 1200 227.2C1280 241.3 1360 227.7 1400 220.8L1440 214L1440 321L1400 321C1360 321 1280 321 1200 321C1120 321 1040 321 960 321C880 321 800 321 720 321C640 321 560 321 480 321C400 321 320 321 240 321C160 321 80 321 40 321L0 321Z" fill="#C9D8B6" stroke-linecap="round" stroke-linejoin="miter"></path></svg>