<svg id="visual" viewBox="0 0 1440 320" xmlns="http://www.w3.org/2000/svg" xmlns:xlink="http://www.w3.org/1999/xlink" version="1.1"><rect x="0" y="0" width="1440" height="320" fill="#C9D8B6"></rect><path d="M0 213L34.3 201.5C68.7 190 137.3 167 205.8 152.2C274.3 137.3 342.7 130.7 411.2 142C479.7 153.3 548.3 182.7 617 200.3C685.7 218 754.3 224 823 220.5C891.7 217 960.3 204 1028.8 202.3C1097.3 200.7 1165.7 210.3 1234.2 210.5C1302.7 210.7 1371.3 201.3 1405.7 196.7L1440 192L1440 321L1405.7 321C1371.3 321 1302.7 321 1234.2 321C1165.7 321 1097.3 321 1028.8 321C960.3 321 891.7 321 823 321C754.3 321 685.7 321 617 321C548.3 321 479.7 321 411.2 321C342.7 321 274.3 321 205.8 321C137.3 321 68.7 321 34.3 321L0 321Z" fill="#F1ECC3" stroke-linecap="round" stroke-linejoin="miter"></path></svg>