<svg id="visual" viewBox="0 0 1440 320" xmlns="http://www.w3.org/2000/svg" xmlns:xlink="http://www.w3.org/1999/xlink" version="1.1"><rect x="0" y="0" width="1440" height="320" fill="#C9D8B6"></rect><path d="M0 239L40 231C80 223 160 207 240 202.2C320 197.3 400 203.7 480 214.3C560 225 640 240 720 237.5C800 235 880 215 960 195.8C1040 176.7 1120 158.3 1200 167.5C1280 176.7 1360 213.3 1400 231.7L1440 250L1440 321L1400 321C1360 321 1280 321 1200 321C1120 321 1040 321 960 321C880 321 800 321 720 321C640 321 560 321 480 321C400 321 320 321 240 321C160 321 80 321 40 321L0 321Z" fill="#F1ECC3" stroke-linecap="round" stroke-linejoin="miter"></path></svg>