<svg id="visual" viewBox="0 0 1440 320" xmlns="http://www.w3.org/2000/svg" xmlns:xlink="http://www.w3.org/1999/xlink" version="1.1"><rect x="0" y="0" width="1440" height="320" fill="#F1ECC3"></rect><path d="M0 170L34.3 162.8C68.7 155.7 137.3 141.3 205.8 135.2C274.3 129 342.7 131 411.2 140.3C479.7 149.7 548.3 166.3 617 179.5C685.7 192.7 754.3 202.3 823 206.2C891.7 210 960.3 208 1028.8 195.5C1097.3 183 1165.7 160 1234.2 158.7C1302.7 157.3 1371.3 177.7 1405.7 187.8L1440 198L1440 321L1405.7 321C1371.3 321 1302.7 321 1234.2 321C1165.7 321 1097.3 321 1028.8 321C960.3 321 891.7 321 823 321C754.3 321 685.7 321 617 321C548.3 321 479.7 321 411.2 321C342.7 321 274.3 321 205.8 321C137.3 321 68.7 321 34.3 321L0 321Z" fill="#C9D8B6" stroke-linecap="round" stroke-linejoin="miter"></path></svg>