<svg id="visual" viewBox="0 0 1440 320" xmlns="http://www.w3.org/2000/svg" xmlns:xlink="http://www.w3.org/1999/xlink" version="1.1"><rect x="0" y="0" width="1440" height="320" fill="#F1ECC3"></rect><path d="M0 142L34.3 150C68.7 158 137.3 174 205.8 185.3C274.3 196.7 342.7 203.3 411.2 212.7C479.7 222 548.3 234 617 217.8C685.7 201.7 754.3 157.3 823 143.3C891.7 129.3 960.3 145.7 1028.8 151.2C1097.3 156.7 1165.7 151.3 1234.2 147.5C1302.7 143.7 1371.3 141.3 1405.7 140.2L1440 139L1440 321L1405.7 321C1371.3 321 1302.7 321 1234.2 321C1165.7 321 1097.3 321 1028.8 321C960.3 321 891.7 321 823 321C754.3 321 685.7 321 617 321C548.3 321 479.7 321 411.2 321C342.7 321 274.3 321 205.8 321C137.3 321 68.7 321 34.3 321L0 321Z" fill="#C9D8B6" stroke-linecap="round" stroke-linejoin="miter"></path></svg>